<svg viewBox="0 0 40 40" fill="none" xmlns="http://www.w3.org/2000/svg">
<g clip-path="url(#clip0_140_50)">
<path d="M20 40C31.0446 40 40 31.0446 40 20C40 8.95536 31.0446 0 20 0C8.95536 0 0 8.95536 0 20C0 31.0446 8.95536 40 20 40ZM6.40625 8.36161C8.24107 6.22321 10.567 4.52232 13.2143 3.4375L12.7857 4.23214C12.4955 4.71429 12.6295 5.34375 13.0938 5.63839L18.9732 9.02232C19.5446 9.32143 20.4732 9.31696 21.0402 9.02232L26.9107 5.64286C27.375 5.34375 27.5045 4.71429 27.2143 4.23661L26.7813 3.4375C29.4911 4.54911 31.8661 6.30357 33.7188 8.50893L33.2366 8.41964C32.6875 8.29018 32.1339 8.61161 31.9955 9.14732L30.5982 15.7857C30.4911 16.4196 30.7768 17.3036 31.2366 17.75L36.2679 22.2902C36.6964 22.6429 37.3348 22.5714 37.7009 22.1429L37.7857 22.0536C37.4554 24.933 36.4464 27.6027 34.9152 29.9018L34.6696 28.3036C34.6116 27.7455 34.125 27.3214 33.5759 27.3661L26.8438 28.2054C26.2098 28.308 25.4688 28.8705 25.1964 29.4464L22.5402 35.6786C22.3482 36.1964 22.6205 36.7768 23.1429 36.9866L24.0982 37.4241C22.7857 37.7321 21.4152 37.8929 20.0045 37.8929C18.4911 37.8929 17.0223 37.7054 15.6205 37.3527L16.5179 36.942C17.0402 36.7321 17.3125 36.1518 17.1205 35.6339L14.4643 29.4018C14.192 28.8259 13.4509 28.2634 12.817 28.1607L6.08036 27.3214C5.53125 27.2768 5.04464 27.7009 4.98661 28.2589L4.80357 29.4509C3.34821 27.1116 2.41518 24.4152 2.16964 21.5179L2.59375 21.9643C2.95982 22.3884 3.59821 22.4598 4.02679 22.1116L9.05804 17.5714C9.51339 17.125 9.80357 16.2411 9.69643 15.6071L8.29464 8.97321C8.15625 8.4375 7.59821 8.11607 7.05357 8.24554L6.40625 8.36161Z" fill="#009C5F"/>
<path d="M22.8232 19.506L27.9789 14.3362C28.6313 13.682 28.6313 12.6449 27.9789 11.9907C27.3265 11.3364 26.2921 11.3364 25.6397 11.9907L20.4841 17.1604L15.3284 11.9907C14.676 11.3364 13.6417 11.3364 12.9893 11.9907C12.3369 12.6449 12.3369 13.682 12.9893 14.3362L18.145 19.506L12.9893 24.6758C12.3369 25.33 12.3369 26.3671 12.9893 27.0213C13.2916 27.3404 13.7213 27.5 14.1668 27.5C14.6124 27.5 15.0261 27.3245 15.3444 27.0213L20.5 21.8515L25.6556 27.0213C25.958 27.3404 26.3876 27.5 26.8332 27.5C27.2787 27.5 27.6924 27.3245 28.0107 27.0213C28.6631 26.3671 28.6631 25.33 28.0107 24.6758L22.8232 19.506Z" fill="#E74C5B"/>
</g>
<defs>
<clipPath id="clip0_140_50">
<rect width="40" height="40" fill="white"/>
</clipPath>
</defs>
</svg>